<!DOCTYPE svg PUBLIC "-//W3C//DTD SVG 1.1//EN" "http://www.w3.org/Graphics/SVG/1.1/DTD/svg11.dtd">
<!-- Uploaded to: SVG Repo, www.svgrepo.com, Transformed by: SVG Repo Mixer Tools -->
<svg version="1.1" id="Layer_1" xmlns="http://www.w3.org/2000/svg" xmlns:xlink="http://www.w3.org/1999/xlink" viewBox="0 0 512 512" xml:space="preserve" width="800px" height="800px" fill="#000000" transform="rotate(0)">
<g id="SVGRepo_bgCarrier" stroke-width="0"/>
<g id="SVGRepo_tracerCarrier" stroke-linecap="round" stroke-linejoin="round"/>
<g id="SVGRepo_iconCarrier"> <path style="fill:#f5f5f5;" d="M384,512H128c-8.448,0-15.36-6.912-15.36-15.36V15.36C112.64,6.912,119.552,0,128,0h256 c8.448,0,15.36,6.912,15.36,15.36v481.28C399.36,505.088,392.448,512,384,512z"/> <rect x="132" y="44.96" style="fill:#000000;" width="248" height="401.6"/> <path style="fill:#6a00ff;" d="M376,48.96v393.6H136V48.96H376 M384,40.96H128v409.6h256V40.96L384,40.96z"/> <g> <path style="fill:#000000;" d="M286.72,25.76h-61.44c-2.816,0-5.12-2.304-5.12-5.12l0,0c0-2.816,2.304-5.12,5.12-5.12h61.44 c2.816,0,5.12,2.304,5.12,5.12l0,0C291.84,23.456,289.536,25.76,286.72,25.76z"/> <path style="fill:#000000;" d="M286.72,481.28h-61.44c-2.816,0-5.12-2.304-5.12-5.12l0,0c0-2.816,2.304-5.12,5.12-5.12h61.44 c2.816,0,5.12,2.304,5.12,5.12l0,0C291.84,478.976,289.536,481.28,286.72,481.28z"/> </g> </g>
</svg>