<svg fill="none" height="24" viewBox="0 0 24 24" width="24" xmlns="http://www.w3.org/2000/svg"><path d="m17 6h2c.5523 0 1 .44772 1 1v5l-1.5855 5.5494c-.2453.8586-1.0301 1.4506-1.9231 1.4506h-7.49138c-1 0-3-3-3-3s-.369-3.321-1.10699-5.4333c-.26054-.74569.07671-1.93034.81631-2.2077l.93956-.35233c.65375-.24515 1.35112.23812 1.35112.93633m8.99998-2.943v2.5m0-2.5v-1c0-.55228-.4477-1-1-1h-1c-.5523 0-1 .44772-1 1m0 0v3.5m0-3.5v-1c0-.55228-.4477-1-1-1h-1c-.5523 0-1 .44772-1 1m0 0v4.5m0-4.5h-1.99998c-.55228 0-1 .44772-1 1v3.943m0 0v3.057" stroke="#09090b" stroke-linecap="round" stroke-linejoin="round"/></svg>